<mxfile host="Electron" modified="2024-06-07T20:50:29.220Z" agent="Mozilla/5.0 (Windows NT 10.0; Win64; x64) AppleWebKit/537.36 (KHTML, like Gecko) draw.io/24.5.1 Chrome/124.0.6367.207 Electron/30.0.6 Safari/537.36" etag="BZouDdLuGCR5dgMJTIso" version="24.5.1" type="device">
  <diagram name="Page-1" id="2YBvvXClWsGukQMizWep">
    <mxGraphModel dx="794" dy="511" grid="1" gridSize="10" guides="1" tooltips="1" connect="1" arrows="1" fold="1" page="1" pageScale="1" pageWidth="850" pageHeight="1100" math="0" shadow="0">
      <root>
        <mxCell id="0" />
        <mxCell id="1" parent="0" />
        <mxCell id="SfZaxB4F-c98HGeVXvhZ-4" value="" style="shape=umlLifeline;perimeter=lifelinePerimeter;whiteSpace=wrap;html=1;container=1;dropTarget=0;collapsible=0;recursiveResize=0;outlineConnect=0;portConstraint=eastwest;newEdgeStyle={&quot;curved&quot;:0,&quot;rounded&quot;:0};participant=umlBoundary;" parent="1" vertex="1">
          <mxGeometry x="180" y="40" width="50" height="560" as="geometry" />
        </mxCell>
        <mxCell id="SfZaxB4F-c98HGeVXvhZ-5" value="RegisterForm" style="text;html=1;align=center;verticalAlign=middle;resizable=0;points=[];autosize=1;strokeColor=none;fillColor=none;" parent="1" vertex="1">
          <mxGeometry x="160" y="10" width="100" height="30" as="geometry" />
        </mxCell>
        <mxCell id="SfZaxB4F-c98HGeVXvhZ-6" value="requestRegister()" style="html=1;verticalAlign=bottom;startArrow=oval;startFill=1;endArrow=block;startSize=8;curved=0;rounded=0;" parent="1" target="SfZaxB4F-c98HGeVXvhZ-4" edge="1">
          <mxGeometry width="60" relative="1" as="geometry">
            <mxPoint x="80" y="100" as="sourcePoint" />
            <mxPoint x="200" y="100" as="targetPoint" />
          </mxGeometry>
        </mxCell>
        <mxCell id="SfZaxB4F-c98HGeVXvhZ-7" value="" style="shape=umlLifeline;perimeter=lifelinePerimeter;whiteSpace=wrap;html=1;container=1;dropTarget=0;collapsible=0;recursiveResize=0;outlineConnect=0;portConstraint=eastwest;newEdgeStyle={&quot;curved&quot;:0,&quot;rounded&quot;:0};participant=umlControl;" parent="1" vertex="1">
          <mxGeometry x="390" y="40" width="40" height="540" as="geometry" />
        </mxCell>
        <mxCell id="SfZaxB4F-c98HGeVXvhZ-9" value="" style="html=1;points=[[0,0,0,0,5],[0,1,0,0,-5],[1,0,0,0,5],[1,1,0,0,-5]];perimeter=orthogonalPerimeter;outlineConnect=0;targetShapes=umlLifeline;portConstraint=eastwest;newEdgeStyle={&quot;curved&quot;:0,&quot;rounded&quot;:0};" parent="SfZaxB4F-c98HGeVXvhZ-7" vertex="1">
          <mxGeometry x="15" y="70" width="10" height="80" as="geometry" />
        </mxCell>
        <mxCell id="SfZaxB4F-c98HGeVXvhZ-8" value="RegisterController" style="text;html=1;align=center;verticalAlign=middle;resizable=0;points=[];autosize=1;strokeColor=none;fillColor=none;" parent="1" vertex="1">
          <mxGeometry x="350" y="10" width="120" height="30" as="geometry" />
        </mxCell>
        <mxCell id="SfZaxB4F-c98HGeVXvhZ-10" value="register(username, email, password)" style="html=1;verticalAlign=bottom;endArrow=block;curved=0;rounded=0;entryX=0;entryY=0;entryDx=0;entryDy=5;" parent="1" source="SfZaxB4F-c98HGeVXvhZ-4" target="SfZaxB4F-c98HGeVXvhZ-9" edge="1">
          <mxGeometry relative="1" as="geometry">
            <mxPoint x="295" y="115" as="sourcePoint" />
          </mxGeometry>
        </mxCell>
        <mxCell id="SfZaxB4F-c98HGeVXvhZ-11" value="return" style="html=1;verticalAlign=bottom;endArrow=open;dashed=1;endSize=8;curved=0;rounded=0;exitX=0;exitY=1;exitDx=0;exitDy=-5;" parent="1" source="SfZaxB4F-c98HGeVXvhZ-9" target="SfZaxB4F-c98HGeVXvhZ-4" edge="1">
          <mxGeometry relative="1" as="geometry">
            <mxPoint x="295" y="185" as="targetPoint" />
          </mxGeometry>
        </mxCell>
        <mxCell id="SfZaxB4F-c98HGeVXvhZ-15" value="isEmailExist(email)" style="html=1;verticalAlign=bottom;endArrow=block;curved=0;rounded=0;" parent="1" edge="1">
          <mxGeometry relative="1" as="geometry">
            <mxPoint x="415" y="120" as="sourcePoint" />
            <mxPoint x="659.5" y="120" as="targetPoint" />
          </mxGeometry>
        </mxCell>
        <mxCell id="SfZaxB4F-c98HGeVXvhZ-16" value="return" style="html=1;verticalAlign=bottom;endArrow=open;dashed=1;endSize=8;curved=0;rounded=0;" parent="1" edge="1">
          <mxGeometry relative="1" as="geometry">
            <mxPoint x="415" y="180" as="targetPoint" />
            <mxPoint x="659.5" y="180" as="sourcePoint" />
          </mxGeometry>
        </mxCell>
        <mxCell id="SfZaxB4F-c98HGeVXvhZ-17" value="break" style="shape=umlFrame;whiteSpace=wrap;html=1;pointerEvents=0;" parent="1" vertex="1">
          <mxGeometry x="110" y="170" width="370" height="90" as="geometry" />
        </mxCell>
        <mxCell id="SfZaxB4F-c98HGeVXvhZ-18" value="[Email existed]" style="text;html=1;align=center;verticalAlign=middle;resizable=0;points=[];autosize=1;strokeColor=none;fillColor=none;" parent="1" vertex="1">
          <mxGeometry x="100" y="198" width="100" height="30" as="geometry" />
        </mxCell>
        <mxCell id="SfZaxB4F-c98HGeVXvhZ-21" value="" style="html=1;points=[[0,0,0,0,5],[0,1,0,0,-5],[1,0,0,0,5],[1,1,0,0,-5]];perimeter=orthogonalPerimeter;outlineConnect=0;targetShapes=umlLifeline;portConstraint=eastwest;newEdgeStyle={&quot;curved&quot;:0,&quot;rounded&quot;:0};" parent="1" vertex="1">
          <mxGeometry x="200" y="210" width="10" height="40" as="geometry" />
        </mxCell>
        <mxCell id="SfZaxB4F-c98HGeVXvhZ-22" value="notifyError()" style="html=1;align=left;spacingLeft=2;endArrow=block;rounded=0;edgeStyle=orthogonalEdgeStyle;curved=0;rounded=0;" parent="1" source="SfZaxB4F-c98HGeVXvhZ-21" target="SfZaxB4F-c98HGeVXvhZ-21" edge="1">
          <mxGeometry relative="1" as="geometry">
            <mxPoint x="205" y="230" as="sourcePoint" />
            <Array as="points">
              <mxPoint x="205" y="200" />
              <mxPoint x="235" y="200" />
              <mxPoint x="235" y="230" />
            </Array>
          </mxGeometry>
        </mxCell>
        <mxCell id="SfZaxB4F-c98HGeVXvhZ-26" value="&lt;span style=&quot;text-wrap: nowrap;&quot;&gt;UserService&lt;/span&gt;" style="shape=umlLifeline;perimeter=lifelinePerimeter;whiteSpace=wrap;html=1;container=1;dropTarget=0;collapsible=0;recursiveResize=0;outlineConnect=0;portConstraint=eastwest;newEdgeStyle={&quot;curved&quot;:0,&quot;rounded&quot;:0};" parent="1" vertex="1">
          <mxGeometry x="610" y="40" width="100" height="530" as="geometry" />
        </mxCell>
        <mxCell id="SfZaxB4F-c98HGeVXvhZ-24" value="verifyOtp(otp)" style="html=1;verticalAlign=bottom;endArrow=block;curved=0;rounded=0;entryX=0;entryY=0;entryDx=0;entryDy=5;" parent="SfZaxB4F-c98HGeVXvhZ-26" target="SfZaxB4F-c98HGeVXvhZ-23" edge="1">
          <mxGeometry x="0.002" relative="1" as="geometry">
            <mxPoint x="-200.5" y="305" as="sourcePoint" />
            <mxPoint as="offset" />
          </mxGeometry>
        </mxCell>
        <mxCell id="SfZaxB4F-c98HGeVXvhZ-25" value="return" style="html=1;verticalAlign=bottom;endArrow=open;dashed=1;endSize=8;curved=0;rounded=0;exitX=0;exitY=1;exitDx=0;exitDy=-5;" parent="SfZaxB4F-c98HGeVXvhZ-26" source="SfZaxB4F-c98HGeVXvhZ-23" edge="1">
          <mxGeometry relative="1" as="geometry">
            <mxPoint x="-200.5" y="345" as="targetPoint" />
          </mxGeometry>
        </mxCell>
        <mxCell id="SfZaxB4F-c98HGeVXvhZ-23" value="" style="html=1;points=[[0,0,0,0,5],[0,1,0,0,-5],[1,0,0,0,5],[1,1,0,0,-5]];perimeter=orthogonalPerimeter;outlineConnect=0;targetShapes=umlLifeline;portConstraint=eastwest;newEdgeStyle={&quot;curved&quot;:0,&quot;rounded&quot;:0};" parent="SfZaxB4F-c98HGeVXvhZ-26" vertex="1">
          <mxGeometry x="45" y="300" width="10" height="50" as="geometry" />
        </mxCell>
        <mxCell id="SfZaxB4F-c98HGeVXvhZ-30" value="" style="html=1;points=[[0,0,0,0,5],[0,1,0,0,-5],[1,0,0,0,5],[1,1,0,0,-5]];perimeter=orthogonalPerimeter;outlineConnect=0;targetShapes=umlLifeline;portConstraint=eastwest;newEdgeStyle={&quot;curved&quot;:0,&quot;rounded&quot;:0};" parent="SfZaxB4F-c98HGeVXvhZ-26" vertex="1">
          <mxGeometry x="45" y="240" width="10" height="40" as="geometry" />
        </mxCell>
        <mxCell id="SfZaxB4F-c98HGeVXvhZ-28" value="sendOtpToEmail(email)" style="html=1;verticalAlign=bottom;endArrow=block;curved=0;rounded=0;entryX=0;entryY=0;entryDx=0;entryDy=5;" parent="SfZaxB4F-c98HGeVXvhZ-26" target="SfZaxB4F-c98HGeVXvhZ-30" edge="1">
          <mxGeometry relative="1" as="geometry">
            <mxPoint x="-200.5" y="245" as="sourcePoint" />
          </mxGeometry>
        </mxCell>
        <mxCell id="SfZaxB4F-c98HGeVXvhZ-29" value="return" style="html=1;verticalAlign=bottom;endArrow=open;dashed=1;endSize=8;curved=0;rounded=0;exitX=0;exitY=1;exitDx=0;exitDy=-5;" parent="SfZaxB4F-c98HGeVXvhZ-26" source="SfZaxB4F-c98HGeVXvhZ-30" edge="1">
          <mxGeometry relative="1" as="geometry">
            <mxPoint x="-200.5" y="275" as="targetPoint" />
          </mxGeometry>
        </mxCell>
        <mxCell id="SfZaxB4F-c98HGeVXvhZ-37" value="" style="html=1;points=[[0,0,0,0,5],[0,1,0,0,-5],[1,0,0,0,5],[1,1,0,0,-5]];perimeter=orthogonalPerimeter;outlineConnect=0;targetShapes=umlLifeline;portConstraint=eastwest;newEdgeStyle={&quot;curved&quot;:0,&quot;rounded&quot;:0};" parent="SfZaxB4F-c98HGeVXvhZ-26" vertex="1">
          <mxGeometry x="45" y="440" width="10" height="60" as="geometry" />
        </mxCell>
        <mxCell id="SfZaxB4F-c98HGeVXvhZ-38" value="saveUser(user)" style="html=1;verticalAlign=bottom;endArrow=block;curved=0;rounded=0;entryX=0;entryY=0;entryDx=0;entryDy=5;" parent="SfZaxB4F-c98HGeVXvhZ-26" target="SfZaxB4F-c98HGeVXvhZ-37" edge="1">
          <mxGeometry relative="1" as="geometry">
            <mxPoint x="-200.5" y="445" as="sourcePoint" />
          </mxGeometry>
        </mxCell>
        <mxCell id="SfZaxB4F-c98HGeVXvhZ-31" value="return" style="html=1;verticalAlign=bottom;endArrow=open;dashed=1;endSize=8;curved=0;rounded=0;" parent="1" target="SfZaxB4F-c98HGeVXvhZ-4" edge="1">
          <mxGeometry relative="1" as="geometry">
            <mxPoint x="410" y="400" as="sourcePoint" />
            <mxPoint x="330" y="400" as="targetPoint" />
          </mxGeometry>
        </mxCell>
        <mxCell id="SfZaxB4F-c98HGeVXvhZ-32" value="break" style="shape=umlFrame;whiteSpace=wrap;html=1;pointerEvents=0;" parent="1" vertex="1">
          <mxGeometry x="110" y="370" width="370" height="90" as="geometry" />
        </mxCell>
        <mxCell id="SfZaxB4F-c98HGeVXvhZ-33" value="[Invalid OTP]" style="text;html=1;align=center;verticalAlign=middle;resizable=0;points=[];autosize=1;strokeColor=none;fillColor=none;" parent="1" vertex="1">
          <mxGeometry x="100" y="400" width="90" height="30" as="geometry" />
        </mxCell>
        <mxCell id="SfZaxB4F-c98HGeVXvhZ-34" value="" style="html=1;points=[[0,0,0,0,5],[0,1,0,0,-5],[1,0,0,0,5],[1,1,0,0,-5]];perimeter=orthogonalPerimeter;outlineConnect=0;targetShapes=umlLifeline;portConstraint=eastwest;newEdgeStyle={&quot;curved&quot;:0,&quot;rounded&quot;:0};" parent="1" vertex="1">
          <mxGeometry x="200" y="430" width="10" height="20" as="geometry" />
        </mxCell>
        <mxCell id="SfZaxB4F-c98HGeVXvhZ-35" value="notifyError()" style="html=1;align=left;spacingLeft=2;endArrow=block;rounded=0;edgeStyle=orthogonalEdgeStyle;curved=0;rounded=0;" parent="1" target="SfZaxB4F-c98HGeVXvhZ-34" edge="1">
          <mxGeometry relative="1" as="geometry">
            <mxPoint x="205" y="410" as="sourcePoint" />
            <Array as="points">
              <mxPoint x="235" y="440" />
            </Array>
          </mxGeometry>
        </mxCell>
        <mxCell id="SfZaxB4F-c98HGeVXvhZ-36" value="" style="shape=umlLifeline;perimeter=lifelinePerimeter;whiteSpace=wrap;html=1;container=1;dropTarget=0;collapsible=0;recursiveResize=0;outlineConnect=0;portConstraint=eastwest;newEdgeStyle={&quot;curved&quot;:0,&quot;rounded&quot;:0};participant=umlEntity;" parent="1" vertex="1">
          <mxGeometry x="805" y="470" width="40" height="100" as="geometry" />
        </mxCell>
        <mxCell id="SfZaxB4F-c98HGeVXvhZ-41" value="new User(username,&amp;nbsp;&lt;div&gt;password, email, avatar)&lt;/div&gt;" style="html=1;verticalAlign=bottom;endArrow=block;curved=0;rounded=0;" parent="1" source="SfZaxB4F-c98HGeVXvhZ-37" target="SfZaxB4F-c98HGeVXvhZ-36" edge="1">
          <mxGeometry x="0.0031" width="80" relative="1" as="geometry">
            <mxPoint x="660" y="500" as="sourcePoint" />
            <mxPoint x="880" y="500" as="targetPoint" />
            <mxPoint as="offset" />
          </mxGeometry>
        </mxCell>
        <mxCell id="SfZaxB4F-c98HGeVXvhZ-42" value=":user" style="text;html=1;align=center;verticalAlign=middle;resizable=0;points=[];autosize=1;strokeColor=none;fillColor=none;" parent="1" vertex="1">
          <mxGeometry x="800" y="440" width="50" height="30" as="geometry" />
        </mxCell>
        <mxCell id="SfZaxB4F-c98HGeVXvhZ-39" value="return" style="html=1;verticalAlign=bottom;endArrow=open;dashed=1;endSize=8;curved=0;rounded=0;exitX=0;exitY=1;exitDx=0;exitDy=-5;" parent="1" source="SfZaxB4F-c98HGeVXvhZ-37" target="SfZaxB4F-c98HGeVXvhZ-7" edge="1">
          <mxGeometry relative="1" as="geometry">
            <mxPoint x="409.5" y="515" as="targetPoint" />
          </mxGeometry>
        </mxCell>
        <mxCell id="nqegnbdxDM7165vpGogu-1" value="return" style="html=1;verticalAlign=bottom;endArrow=open;dashed=1;endSize=8;curved=0;rounded=0;" edge="1" parent="1" target="SfZaxB4F-c98HGeVXvhZ-4">
          <mxGeometry relative="1" as="geometry">
            <mxPoint x="405" y="560" as="sourcePoint" />
            <mxPoint x="200" y="560" as="targetPoint" />
          </mxGeometry>
        </mxCell>
      </root>
    </mxGraphModel>
  </diagram>
</mxfile>
